<?xml version="1.0" standalone="no"?><!-- Generator: Gravit.io --><svg xmlns="http://www.w3.org/2000/svg" xmlns:xlink="http://www.w3.org/1999/xlink" style="isolation:isolate" viewBox="1263 1068.163 984 359.333" width="984" height="359.333"><g id="Group"><g id="Group"><path d=" M 1263 1247.829 C 1263 1148.668 1343.506 1068.163 1442.667 1068.163 C 1541.827 1068.163 1622.333 1148.668 1622.333 1247.829 C 1622.333 1346.99 1541.827 1427.496 1442.667 1427.496 C 1343.506 1427.496 1263 1346.99 1263 1247.829 Z " fill="rgb(255,119,0)"/><path d=" M 1337.919 1295.329 L 1337.919 1295.329 Q 1330.48 1295.329 1324.496 1291.595 L 1324.496 1291.595 L 1324.496 1291.595 Q 1318.512 1287.861 1315.062 1280.777 L 1315.062 1280.777 L 1315.062 1280.777 Q 1311.611 1273.693 1311.611 1264.028 L 1311.611 1264.028 L 1311.611 1264.028 Q 1311.611 1247.335 1318.62 1233.112 L 1318.62 1233.112 L 1318.62 1233.112 Q 1325.628 1218.89 1339.321 1210.268 L 1339.321 1210.268 L 1339.321 1210.268 Q 1353.014 1201.647 1372.206 1201.647 L 1372.206 1201.647 L 1372.206 1201.647 Q 1377.166 1201.647 1382.826 1202.416 L 1382.826 1202.416 L 1382.826 1202.416 Q 1388.487 1203.185 1393.123 1204.722 L 1393.123 1204.722 L 1393.123 1204.722 Q 1396.142 1205.601 1396.142 1209.115 L 1396.142 1209.115 L 1396.142 1209.115 Q 1396.142 1211.971 1394.04 1214.497 L 1394.04 1214.497 L 1394.04 1214.497 Q 1391.937 1217.023 1389.134 1217.023 L 1389.134 1217.023 L 1389.134 1217.023 Q 1388.271 1217.023 1387.84 1216.913 L 1387.84 1216.913 L 1387.84 1216.913 Q 1382.233 1215.595 1378.244 1214.991 L 1378.244 1214.991 L 1378.244 1214.991 Q 1374.255 1214.387 1369.834 1214.387 L 1369.834 1214.387 L 1369.834 1214.387 Q 1356.141 1214.387 1346.545 1221.141 L 1346.545 1221.141 L 1346.545 1221.141 Q 1336.949 1227.896 1332.205 1238.988 L 1332.205 1238.988 L 1332.205 1238.988 Q 1327.461 1250.081 1327.461 1262.93 L 1327.461 1262.93 L 1327.461 1262.93 Q 1327.461 1272.265 1331.073 1277.372 L 1331.073 1277.372 L 1331.073 1277.372 Q 1334.685 1282.479 1340.507 1282.479 L 1340.507 1282.479 L 1340.507 1282.479 Q 1347.084 1282.479 1352.044 1276.988 L 1352.044 1276.988 L 1352.044 1276.988 Q 1357.004 1271.497 1361.101 1259.196 L 1361.101 1259.196 L 1361.101 1259.196 Q 1365.198 1246.896 1369.187 1225.809 L 1369.187 1225.809 L 1369.187 1225.809 Q 1369.834 1222.734 1371.775 1221.635 L 1371.775 1221.635 L 1371.775 1221.635 Q 1373.716 1220.537 1376.95 1220.537 L 1376.95 1220.537 L 1376.95 1220.537 Q 1384.605 1220.537 1384.605 1225.589 L 1384.605 1225.589 L 1384.605 1225.589 Q 1384.605 1226.468 1384.282 1227.786 L 1384.282 1227.786 L 1384.282 1227.786 Q 1381.479 1238.439 1379.161 1251.344 L 1379.161 1251.344 L 1379.161 1251.344 Q 1376.842 1264.248 1376.842 1270.948 L 1376.842 1270.948 L 1376.842 1270.948 Q 1376.842 1276.878 1378.568 1279.569 L 1378.568 1279.569 L 1378.568 1279.569 Q 1380.293 1282.26 1383.851 1282.26 L 1383.851 1282.26 L 1383.851 1282.26 Q 1387.301 1282.26 1390.428 1279.898 L 1390.428 1279.898 L 1390.428 1279.898 Q 1393.555 1277.537 1398.299 1271.826 L 1398.299 1271.826 L 1398.299 1271.826 Q 1399.592 1270.289 1401.21 1270.289 L 1401.21 1270.289 L 1401.21 1270.289 Q 1402.611 1270.289 1403.42 1271.607 L 1403.42 1271.607 L 1403.42 1271.607 Q 1404.229 1272.924 1404.229 1275.231 L 1404.229 1275.231 L 1404.229 1275.231 Q 1404.229 1279.514 1402.18 1282.04 L 1402.18 1282.04 L 1402.18 1282.04 Q 1396.897 1288.52 1391.829 1291.924 L 1391.829 1291.924 L 1391.829 1291.924 Q 1386.762 1295.329 1379.43 1295.329 L 1379.43 1295.329 L 1379.43 1295.329 Q 1371.883 1295.329 1367.246 1290.881 L 1367.246 1290.881 L 1367.246 1290.881 Q 1362.61 1286.433 1361.424 1278.306 L 1361.424 1278.306 L 1361.424 1278.306 Q 1353.445 1295.329 1337.919 1295.329 L 1337.919 1295.329 Z  M 1415.334 1295.329 L 1415.334 1295.329 Q 1411.345 1295.329 1409.62 1293.517 L 1409.62 1293.517 L 1409.62 1293.517 Q 1407.895 1291.705 1407.895 1286.653 L 1407.895 1286.653 L 1407.895 1286.653 Q 1407.895 1283.248 1408.541 1278.416 L 1408.541 1278.416 L 1408.541 1278.416 Q 1409.188 1273.583 1410.806 1263.809 L 1410.806 1263.809 L 1410.806 1263.809 Q 1411.021 1262.491 1412.531 1253.101 L 1412.531 1253.101 L 1412.531 1253.101 Q 1414.04 1243.711 1415.226 1233.387 L 1415.226 1233.387 L 1415.226 1233.387 Q 1416.305 1224.601 1416.305 1220.208 L 1416.305 1220.208 L 1416.305 1220.208 Q 1416.305 1215.265 1412.746 1215.265 L 1412.746 1215.265 L 1412.746 1215.265 Q 1410.051 1215.265 1406.008 1218.176 L 1406.008 1218.176 L 1406.008 1218.176 Q 1401.964 1221.086 1397.328 1227.456 L 1397.328 1227.456 L 1397.328 1227.456 Q 1395.819 1229.543 1393.986 1229.543 L 1393.986 1229.543 L 1393.986 1229.543 Q 1392.476 1229.543 1391.344 1228.06 L 1391.344 1228.06 L 1391.344 1228.06 Q 1390.212 1226.578 1390.212 1224.711 L 1390.212 1224.711 L 1390.212 1224.711 Q 1390.212 1222.844 1390.859 1221.141 L 1390.859 1221.141 L 1390.859 1221.141 Q 1391.506 1219.439 1393.231 1217.023 L 1393.231 1217.023 L 1393.231 1217.023 Q 1398.514 1209.664 1404.983 1205.656 L 1404.983 1205.656 L 1404.983 1205.656 Q 1411.453 1201.647 1418.569 1201.647 L 1418.569 1201.647 L 1418.569 1201.647 Q 1424.499 1201.647 1427.464 1205.381 L 1427.464 1205.381 L 1427.464 1205.381 Q 1430.429 1209.115 1430.429 1216.254 L 1430.429 1216.254 L 1430.429 1216.254 Q 1430.429 1222.624 1428.704 1234.705 L 1428.704 1234.705 L 1428.704 1234.705 Q 1434.095 1218.45 1442.397 1210.049 L 1442.397 1210.049 L 1442.397 1210.049 Q 1450.699 1201.647 1461.912 1201.647 L 1461.912 1201.647 L 1461.912 1201.647 Q 1470.754 1201.647 1475.228 1206.754 L 1475.228 1206.754 L 1475.228 1206.754 Q 1479.703 1211.861 1479.703 1220.427 L 1479.703 1220.427 L 1479.703 1220.427 Q 1479.703 1225.26 1478.301 1232.179 L 1478.301 1232.179 L 1471.724 1263.589 L 1471.724 1263.589 Q 1470.646 1269.081 1470.646 1273.034 L 1470.646 1273.034 L 1470.646 1273.034 Q 1470.646 1277.647 1472.748 1279.953 L 1472.748 1279.953 L 1472.748 1279.953 Q 1474.851 1282.26 1478.625 1282.26 L 1478.625 1282.26 L 1478.625 1282.26 Q 1482.183 1282.26 1485.579 1279.844 L 1485.579 1279.844 L 1485.579 1279.844 Q 1488.975 1277.427 1493.612 1271.826 L 1493.612 1271.826 L 1493.612 1271.826 Q 1494.905 1270.289 1496.523 1270.289 L 1496.523 1270.289 L 1496.523 1270.289 Q 1497.924 1270.289 1498.733 1271.607 L 1498.733 1271.607 L 1498.733 1271.607 Q 1499.542 1272.924 1499.542 1275.231 L 1499.542 1275.231 L 1499.542 1275.231 Q 1499.542 1279.514 1497.493 1282.04 L 1497.493 1282.04 L 1497.493 1282.04 Q 1491.886 1288.959 1486.388 1292.144 L 1486.388 1292.144 L 1486.388 1292.144 Q 1480.889 1295.329 1474.851 1295.329 L 1474.851 1295.329 L 1474.851 1295.329 Q 1465.686 1295.329 1460.511 1289.783 L 1460.511 1289.783 L 1460.511 1289.783 Q 1455.335 1284.237 1455.335 1274.901 L 1455.335 1274.901 L 1455.335 1274.901 Q 1455.335 1271.277 1455.928 1266.994 L 1455.928 1266.994 L 1455.928 1266.994 Q 1456.521 1262.711 1457.923 1256.121 L 1457.923 1256.121 L 1462.236 1236.023 L 1462.236 1236.023 Q 1462.452 1235.034 1462.991 1232.508 L 1462.991 1232.508 L 1462.991 1232.508 Q 1463.53 1229.982 1463.853 1227.731 L 1463.853 1227.731 L 1463.853 1227.731 Q 1464.177 1225.479 1464.177 1223.283 L 1464.177 1223.283 L 1464.177 1223.283 Q 1464.177 1219.768 1462.236 1217.682 L 1462.236 1217.682 L 1462.236 1217.682 Q 1460.295 1215.595 1456.737 1215.595 L 1456.737 1215.595 L 1456.737 1215.595 Q 1450.268 1215.595 1443.799 1222.624 L 1443.799 1222.624 L 1443.799 1222.624 Q 1437.329 1229.653 1431.831 1245.303 L 1431.831 1245.303 L 1431.831 1245.303 Q 1426.332 1260.953 1423.205 1285.335 L 1423.205 1285.335 L 1423.205 1285.335 Q 1422.45 1290.936 1420.995 1293.133 L 1420.995 1293.133 L 1420.995 1293.133 Q 1419.539 1295.329 1415.334 1295.329 L 1415.334 1295.329 Z  M 1518.841 1295.329 L 1518.841 1295.329 Q 1512.588 1295.329 1504.717 1294.231 L 1504.717 1294.231 L 1504.717 1294.231 Q 1500.404 1293.682 1498.787 1291.924 L 1498.787 1291.924 L 1498.787 1291.924 Q 1497.17 1290.167 1497.385 1286.213 L 1497.385 1286.213 L 1497.385 1286.213 Q 1498.14 1275.341 1500.943 1259.361 L 1500.943 1259.361 L 1500.943 1259.361 Q 1503.747 1243.381 1507.736 1228.555 L 1507.736 1228.555 L 1507.736 1228.555 Q 1508.491 1225.809 1510.755 1224.711 L 1510.755 1224.711 L 1510.755 1224.711 Q 1513.019 1223.612 1516.685 1223.612 L 1516.685 1223.612 L 1516.685 1223.612 Q 1523.262 1223.612 1523.262 1227.346 L 1523.262 1227.346 L 1523.262 1227.346 Q 1523.262 1228.884 1522.615 1230.861 L 1522.615 1230.861 L 1522.615 1230.861 Q 1519.812 1239.647 1517.008 1254.419 L 1517.008 1254.419 L 1517.008 1254.419 Q 1514.205 1269.19 1513.019 1282.589 L 1513.019 1282.589 L 1513.019 1282.589 Q 1516.254 1282.919 1520.351 1282.919 L 1520.351 1282.919 L 1520.351 1282.919 Q 1539.219 1282.919 1548.546 1271.277 L 1548.546 1271.277 L 1548.546 1271.277 Q 1557.872 1259.635 1557.872 1240.196 L 1557.872 1240.196 L 1557.872 1240.196 Q 1557.872 1227.127 1550.54 1219.988 L 1550.54 1219.988 L 1550.54 1219.988 Q 1543.209 1212.849 1529.839 1212.849 L 1529.839 1212.849 L 1529.839 1212.849 Q 1521.213 1212.849 1512.75 1215.595 L 1512.75 1215.595 L 1512.75 1215.595 Q 1504.286 1218.341 1497.493 1222.844 L 1497.493 1222.844 L 1497.493 1222.844 Q 1496.091 1223.832 1494.474 1223.832 L 1494.474 1223.832 L 1494.474 1223.832 Q 1492.641 1223.832 1491.563 1222.239 L 1491.563 1222.239 L 1491.563 1222.239 Q 1490.485 1220.647 1490.485 1218.341 L 1490.485 1218.341 L 1490.485 1218.341 Q 1490.485 1215.705 1491.347 1214.002 L 1491.347 1214.002 L 1491.347 1214.002 Q 1492.21 1212.3 1494.258 1210.872 L 1494.258 1210.872 L 1494.258 1210.872 Q 1501.698 1205.711 1511.725 1203.02 L 1511.725 1203.02 L 1511.725 1203.02 Q 1521.753 1200.329 1531.025 1200.329 L 1531.025 1200.329 L 1531.025 1200.329 Q 1544.179 1200.329 1553.775 1204.997 L 1553.775 1204.997 L 1553.775 1204.997 Q 1563.371 1209.664 1568.546 1218.67 L 1568.546 1218.67 L 1568.546 1218.67 Q 1573.722 1227.676 1573.722 1240.416 L 1573.722 1240.416 L 1573.722 1240.416 Q 1573.722 1257 1567.253 1269.355 L 1567.253 1269.355 L 1567.253 1269.355 Q 1560.783 1281.711 1548.384 1288.52 L 1548.384 1288.52 L 1548.384 1288.52 Q 1535.985 1295.329 1518.841 1295.329 L 1518.841 1295.329 Z " fill-rule="evenodd" fill="rgb(255,255,255)"/></g><path d=" M 2015.198 1210.093 L 2015.198 1295.333 L 2004.172 1295.333 L 2004.172 1240.311 L 1984.771 1292.563 L 1984.771 1292.563 Q 1984.055 1294.56 1982.772 1295.591 L 1982.772 1295.591 L 1982.772 1295.591 Q 1981.488 1296.622 1980.015 1296.622 L 1980.015 1296.622 L 1980.015 1296.622 Q 1978.584 1296.622 1977.343 1295.591 L 1977.343 1295.591 L 1977.343 1295.591 Q 1976.101 1294.56 1975.386 1292.563 L 1975.386 1292.563 L 1955.901 1240.311 L 1955.901 1295.333 L 1944.959 1295.333 L 1944.959 1210.093 L 1944.959 1210.093 Q 1944.959 1207.194 1946.074 1204.939 L 1946.074 1204.939 L 1946.074 1204.939 Q 1947.189 1202.684 1948.999 1201.911 L 1948.999 1201.911 L 1948.999 1201.911 Q 1949.883 1201.589 1950.767 1201.685 L 1950.767 1201.685 L 1950.767 1201.685 Q 1951.65 1201.782 1952.471 1202.265 L 1952.471 1202.265 L 1952.471 1202.265 Q 1953.292 1202.748 1953.965 1203.618 L 1953.965 1203.618 L 1953.965 1203.618 Q 1954.638 1204.488 1955.101 1205.712 L 1955.101 1205.712 L 1980.015 1272.01 L 2004.929 1205.712 L 2004.929 1205.712 Q 2005.897 1203.264 2007.602 1202.233 L 2007.602 1202.233 L 2007.602 1202.233 Q 2009.306 1201.202 2011.158 1201.911 L 2011.158 1201.911 L 2011.158 1201.911 Q 2012.926 1202.684 2014.062 1204.939 L 2014.062 1204.939 L 2014.062 1204.939 Q 2015.198 1207.194 2015.198 1210.093 L 2015.198 1210.093 Z  M 2077.525 1240.697 L 2077.525 1257.578 L 2042.974 1257.578 L 2042.974 1240.697 L 2077.525 1240.697 Z  M 2082.449 1278.582 L 2082.449 1295.333 L 2042.974 1295.333 L 2042.974 1295.333 Q 2040.701 1295.333 2038.008 1294.109 L 2038.008 1294.109 L 2038.008 1294.109 Q 2035.315 1292.885 2033.021 1290.082 L 2033.021 1290.082 L 2033.021 1290.082 Q 2030.727 1287.28 2029.191 1282.802 L 2029.191 1282.802 L 2029.191 1282.802 Q 2027.655 1278.324 2027.655 1271.817 L 2027.655 1271.817 L 2027.655 1211.382 L 2027.655 1211.382 Q 2027.655 1209.642 2028.076 1208.096 L 2028.076 1208.096 L 2028.076 1208.096 Q 2028.497 1206.55 2029.233 1205.39 L 2029.233 1205.39 L 2029.233 1205.39 Q 2029.97 1204.23 2030.98 1203.586 L 2030.98 1203.586 L 2030.98 1203.586 Q 2031.99 1202.942 2033.168 1202.942 L 2033.168 1202.942 L 2082.449 1202.942 L 2082.449 1219.693 L 2038.597 1219.693 L 2038.597 1271.817 L 2038.597 1271.817 Q 2038.597 1275.103 2039.733 1276.842 L 2039.733 1276.842 L 2039.733 1276.842 Q 2040.87 1278.582 2043.058 1278.582 L 2043.058 1278.582 L 2082.449 1278.582 Z  M 2153.236 1241.599 L 2153.236 1256.676 L 2153.236 1256.676 Q 2153.236 1265.116 2151.321 1272.203 L 2151.321 1272.203 L 2151.321 1272.203 Q 2149.406 1279.29 2146.039 1284.413 L 2146.039 1284.413 L 2146.039 1284.413 Q 2142.672 1289.535 2138.043 1292.434 L 2138.043 1292.434 L 2138.043 1292.434 Q 2133.414 1295.333 2127.985 1295.333 L 2127.985 1295.333 L 2098.441 1295.333 L 2098.441 1295.333 Q 2097.263 1295.333 2096.253 1294.689 L 2096.253 1294.689 L 2096.253 1294.689 Q 2095.243 1294.045 2094.506 1292.917 L 2094.506 1292.917 L 2094.506 1292.917 Q 2093.77 1291.79 2093.349 1290.243 L 2093.349 1290.243 L 2093.349 1290.243 Q 2092.928 1288.697 2092.928 1286.893 L 2092.928 1286.893 L 2092.928 1211.382 L 2092.928 1211.382 Q 2092.928 1209.642 2093.349 1208.096 L 2093.349 1208.096 L 2093.349 1208.096 Q 2093.77 1206.55 2094.506 1205.39 L 2094.506 1205.39 L 2094.506 1205.39 Q 2095.243 1204.23 2096.253 1203.586 L 2096.253 1203.586 L 2096.253 1203.586 Q 2097.263 1202.942 2098.441 1202.942 L 2098.441 1202.942 L 2127.985 1202.942 L 2127.985 1202.942 Q 2133.414 1202.942 2138.043 1205.841 L 2138.043 1205.841 L 2138.043 1205.841 Q 2142.672 1208.74 2146.039 1213.862 L 2146.039 1213.862 L 2146.039 1213.862 Q 2149.406 1218.985 2151.321 1226.104 L 2151.321 1226.104 L 2151.321 1226.104 Q 2153.236 1233.223 2153.236 1241.599 L 2153.236 1241.599 Z  M 2142.294 1256.676 L 2142.294 1241.599 L 2142.294 1241.599 Q 2142.294 1236.703 2141.262 1232.644 L 2141.262 1232.644 L 2141.262 1232.644 Q 2140.231 1228.585 2138.338 1225.717 L 2138.338 1225.717 L 2138.338 1225.717 Q 2136.444 1222.85 2133.813 1221.272 L 2133.813 1221.272 L 2133.813 1221.272 Q 2131.183 1219.693 2127.985 1219.693 L 2127.985 1219.693 L 2103.87 1219.693 L 2103.87 1278.582 L 2127.985 1278.582 L 2127.985 1278.582 Q 2131.183 1278.582 2133.813 1277.003 L 2133.813 1277.003 L 2133.813 1277.003 Q 2136.444 1275.425 2138.338 1272.558 L 2138.338 1272.558 L 2138.338 1272.558 Q 2140.231 1269.69 2141.262 1265.664 L 2141.262 1265.664 L 2141.262 1265.664 Q 2142.294 1261.637 2142.294 1256.676 L 2142.294 1256.676 Z  M 2174.993 1202.942 L 2174.993 1295.333 L 2164.051 1295.333 L 2164.051 1202.942 L 2174.993 1202.942 Z  M 2247 1211.382 L 2247 1295.333 L 2236.058 1295.333 L 2236.058 1272.654 L 2197.593 1272.654 L 2197.593 1295.333 L 2186.651 1295.333 L 2186.651 1249.137 L 2186.651 1249.137 Q 2186.651 1239.022 2188.923 1230.517 L 2188.923 1230.517 L 2188.923 1230.517 Q 2191.196 1222.013 2195.236 1215.892 L 2195.236 1215.892 L 2195.236 1215.892 Q 2199.276 1209.771 2204.789 1206.356 L 2204.789 1206.356 L 2204.789 1206.356 Q 2210.302 1202.942 2216.825 1202.942 L 2216.825 1202.942 L 2241.487 1202.942 L 2241.487 1202.942 Q 2242.623 1202.942 2243.633 1203.586 L 2243.633 1203.586 L 2243.633 1203.586 Q 2244.643 1204.23 2245.401 1205.39 L 2245.401 1205.39 L 2245.401 1205.39 Q 2246.158 1206.55 2246.579 1208.096 L 2246.579 1208.096 L 2246.579 1208.096 Q 2247 1209.642 2247 1211.382 L 2247 1211.382 Z  M 2197.593 1249.137 L 2197.593 1255.903 L 2236.058 1255.903 L 2236.058 1219.693 L 2216.825 1219.693 L 2216.825 1219.693 Q 2216.32 1219.693 2214.7 1219.919 L 2214.7 1219.919 L 2214.7 1219.919 Q 2213.08 1220.144 2210.955 1221.046 L 2210.955 1221.046 L 2210.955 1221.046 Q 2208.829 1221.948 2206.473 1223.817 L 2206.473 1223.817 L 2206.473 1223.817 Q 2204.116 1225.685 2202.138 1228.971 L 2202.138 1228.971 L 2202.138 1228.971 Q 2200.16 1232.257 2198.876 1237.186 L 2198.876 1237.186 L 2198.876 1237.186 Q 2197.593 1242.115 2197.593 1249.137 L 2197.593 1249.137 Z  M 1706.213 1202.942 L 1706.213 1219.693 L 1682.099 1219.693 L 1682.099 1295.333 L 1671.157 1295.333 L 1671.157 1219.693 L 1647 1219.693 L 1647 1202.942 L 1706.213 1202.942 Z  M 1763.869 1240.697 L 1763.869 1257.578 L 1729.317 1257.578 L 1729.317 1240.697 L 1763.869 1240.697 Z  M 1768.793 1278.582 L 1768.793 1295.333 L 1729.317 1295.333 L 1729.317 1295.333 Q 1727.045 1295.333 1724.351 1294.109 L 1724.351 1294.109 L 1724.351 1294.109 Q 1721.658 1292.885 1719.364 1290.082 L 1719.364 1290.082 L 1719.364 1290.082 Q 1717.071 1287.28 1715.535 1282.802 L 1715.535 1282.802 L 1715.535 1282.802 Q 1713.999 1278.324 1713.999 1271.817 L 1713.999 1271.817 L 1713.999 1211.382 L 1713.999 1211.382 Q 1713.999 1209.642 1714.42 1208.096 L 1714.42 1208.096 L 1714.42 1208.096 Q 1714.84 1206.55 1715.577 1205.39 L 1715.577 1205.39 L 1715.577 1205.39 Q 1716.313 1204.23 1717.323 1203.586 L 1717.323 1203.586 L 1717.323 1203.586 Q 1718.333 1202.942 1719.512 1202.942 L 1719.512 1202.942 L 1768.793 1202.942 L 1768.793 1219.693 L 1724.941 1219.693 L 1724.941 1271.817 L 1724.941 1271.817 Q 1724.941 1275.103 1726.077 1276.842 L 1726.077 1276.842 L 1726.077 1276.842 Q 1727.213 1278.582 1729.402 1278.582 L 1729.402 1278.582 L 1768.793 1278.582 Z  M 1833.393 1278.582 L 1833.393 1295.333 L 1793.917 1295.333 L 1793.917 1295.333 Q 1792.402 1295.333 1790.656 1294.786 L 1790.656 1294.786 L 1790.656 1294.786 Q 1788.909 1294.238 1787.205 1293.078 L 1787.205 1293.078 L 1787.205 1293.078 Q 1785.5 1291.919 1783.943 1290.082 L 1783.943 1290.082 L 1783.943 1290.082 Q 1782.386 1288.246 1781.187 1285.637 L 1781.187 1285.637 L 1781.187 1285.637 Q 1779.987 1283.027 1779.272 1279.58 L 1779.272 1279.58 L 1779.272 1279.58 Q 1778.556 1276.133 1778.556 1271.817 L 1778.556 1271.817 L 1778.556 1226.458 L 1778.556 1226.458 Q 1778.556 1224.139 1778.914 1221.465 L 1778.914 1221.465 L 1778.914 1221.465 Q 1779.272 1218.791 1780.029 1216.182 L 1780.029 1216.182 L 1780.029 1216.182 Q 1780.787 1213.572 1782.007 1211.189 L 1782.007 1211.189 L 1782.007 1211.189 Q 1783.228 1208.805 1784.932 1206.968 L 1784.932 1206.968 L 1784.932 1206.968 Q 1786.637 1205.132 1788.867 1204.037 L 1788.867 1204.037 L 1788.867 1204.037 Q 1791.098 1202.942 1793.917 1202.942 L 1793.917 1202.942 L 1833.393 1202.942 L 1833.393 1219.693 L 1793.917 1219.693 L 1793.917 1219.693 Q 1791.771 1219.693 1790.635 1221.433 L 1790.635 1221.433 L 1790.635 1221.433 Q 1789.498 1223.172 1789.498 1226.587 L 1789.498 1226.587 L 1789.498 1271.817 L 1789.498 1271.817 Q 1789.498 1275.038 1790.656 1276.81 L 1790.656 1276.81 L 1790.656 1276.81 Q 1791.813 1278.582 1793.917 1278.582 L 1793.917 1278.582 L 1833.393 1278.582 Z  M 1854.772 1202.942 L 1854.772 1240.697 L 1893.195 1240.697 L 1893.195 1202.942 L 1904.137 1202.942 L 1904.137 1295.333 L 1893.195 1295.333 L 1893.195 1257.578 L 1854.772 1257.578 L 1854.772 1295.333 L 1843.83 1295.333 L 1843.83 1202.942 L 1854.772 1202.942 Z " fill-rule="evenodd" fill="rgb(0,66,98)"/></g></svg>