<?xml version="1.0" standalone="no"?><!-- Generator: Gravit.io --><svg xmlns="http://www.w3.org/2000/svg" xmlns:xlink="http://www.w3.org/1999/xlink" style="isolation:isolate" viewBox="872 657.95 1201 359.333" width="1201" height="359.333"><g id="Group"><g id="Group"><path d=" M 872 837.617 C 872 738.456 952.506 657.95 1051.667 657.95 C 1150.827 657.95 1231.333 738.456 1231.333 837.617 C 1231.333 936.777 1150.827 1017.283 1051.667 1017.283 C 952.506 1017.283 872 936.777 872 837.617 Z " fill="rgb(255,119,0)"/><path d=" M 1061.007 812.637 L 1061.007 812.637 L 1044.011 812.637 L 1044.011 812.637 Q 1033.196 812.637 1028.42 807.089 L 1028.42 807.089 L 1028.42 807.089 Q 1023.644 801.54 1023.644 792.41 L 1023.644 792.41 L 1023.644 792.41 Q 1023.644 772.184 1053.844 772.184 L 1053.844 772.184 L 1053.844 772.184 Q 1082.217 772.184 1096.544 780.611 L 1096.544 780.611 L 1088.397 786.792 L 1088.397 786.792 Q 1078.565 782.297 1053.844 782.297 L 1053.844 782.297 L 1053.844 782.297 Q 1041.764 782.297 1037.62 784.966 L 1037.62 784.966 L 1037.62 784.966 Q 1033.477 787.635 1033.477 792.41 L 1033.477 792.41 L 1033.477 792.41 Q 1033.477 797.186 1035.724 799.855 L 1035.724 799.855 L 1035.724 799.855 Q 1037.971 802.524 1044.011 802.524 L 1044.011 802.524 L 1061.429 802.524 L 1061.429 802.524 Q 1080.391 802.524 1095.631 808.985 L 1095.631 808.985 L 1095.631 808.985 Q 1110.871 815.446 1120.704 826.613 L 1120.704 826.613 L 1120.704 826.613 Q 1130.536 837.779 1135.733 852.317 L 1135.733 852.317 L 1135.733 852.317 Q 1140.93 866.855 1140.93 883.43 L 1140.93 883.43 L 1140.93 883.43 Q 1140.93 896.914 1137.138 908.994 L 1137.138 908.994 L 1137.138 908.994 Q 1133.345 921.073 1125.69 931.187 L 1125.69 931.187 L 1125.69 931.187 Q 1118.035 941.3 1107.289 948.674 L 1107.289 948.674 L 1107.289 948.674 Q 1096.544 956.048 1081.725 960.192 L 1081.725 960.192 L 1081.725 960.192 Q 1066.907 964.336 1049.63 964.336 L 1049.63 964.336 L 1049.63 964.336 Q 1022.521 964.336 998.853 956.119 L 998.853 956.119 L 998.853 956.119 Q 975.185 947.902 959.453 933.153 L 959.453 933.153 L 967.6 927.113 L 967.6 927.113 Q 981.927 940.036 1003.488 947.129 L 1003.488 947.129 L 1003.488 947.129 Q 1025.049 954.222 1049.63 954.222 L 1049.63 954.222 L 1049.63 954.222 Q 1068.873 954.222 1084.394 948.674 L 1084.394 948.674 L 1084.394 948.674 Q 1099.915 943.126 1109.958 933.434 L 1109.958 933.434 L 1109.958 933.434 Q 1120.001 923.742 1125.409 910.96 L 1125.409 910.96 L 1125.409 910.96 Q 1130.817 898.178 1130.817 883.43 L 1130.817 883.43 L 1130.817 883.43 Q 1130.817 863.905 1122.951 848.103 L 1122.951 848.103 L 1122.951 848.103 Q 1115.085 832.301 1099.002 822.469 L 1099.002 822.469 L 1099.002 822.469 Q 1082.919 812.637 1061.007 812.637 Z  M 1044.011 822.75 L 1044.011 822.75 L 1060.024 822.75 L 1060.024 822.75 Q 1088.538 822.75 1104.621 840.167 L 1104.621 840.167 L 1104.621 840.167 Q 1120.704 857.585 1120.704 883.43 L 1120.704 883.43 L 1120.704 883.43 Q 1120.704 909.696 1102.022 926.903 L 1102.022 926.903 L 1102.022 926.903 Q 1083.341 944.109 1049.63 944.109 L 1049.63 944.109 L 1049.63 944.109 Q 1027.156 944.109 1007.632 937.929 L 1007.632 937.929 L 1007.632 937.929 Q 988.107 931.749 975.185 920.512 L 975.185 920.512 L 983.051 914.191 L 983.051 914.191 Q 994.569 923.602 1012.056 928.799 L 1012.056 928.799 L 1012.056 928.799 Q 1029.544 933.996 1049.63 933.996 L 1049.63 933.996 L 1049.63 933.996 Q 1079.267 933.996 1094.929 919.809 L 1094.929 919.809 L 1094.929 919.809 Q 1110.59 905.623 1110.59 883.43 L 1110.59 883.43 L 1110.59 883.43 Q 1110.59 861.518 1097.457 847.19 L 1097.457 847.19 L 1097.457 847.19 Q 1084.324 832.863 1059.884 832.863 L 1059.884 832.863 L 1044.011 832.863 L 1044.011 832.863 Q 1023.504 832.863 1013.25 821.626 L 1013.25 821.626 L 1013.25 821.626 Q 1002.996 810.389 1002.996 792.41 L 1002.996 792.41 L 1002.996 792.41 Q 1002.996 774.431 1015.708 763.194 L 1015.708 763.194 L 1015.708 763.194 Q 1028.42 751.957 1053.844 751.957 L 1053.844 751.957 L 1053.844 751.957 Q 1071.682 751.957 1086.993 756.101 L 1086.993 756.101 L 1086.993 756.101 Q 1102.303 760.244 1112.276 767.97 L 1112.276 767.97 L 1104.27 774.15 L 1104.27 774.15 Q 1086.712 762.07 1053.844 762.07 L 1053.844 762.07 L 1053.844 762.07 Q 1032.634 762.07 1022.872 770.428 L 1022.872 770.428 L 1022.872 770.428 Q 1013.11 778.785 1013.11 792.41 L 1013.11 792.41 L 1013.11 792.41 Q 1013.11 806.176 1020.344 814.463 L 1020.344 814.463 L 1020.344 814.463 Q 1027.577 822.75 1044.011 822.75 Z  M 1044.011 842.977 L 1044.011 842.977 L 1059.462 842.977 L 1059.462 842.977 Q 1079.97 842.977 1090.223 854.354 L 1090.223 854.354 L 1090.223 854.354 Q 1100.477 865.731 1100.477 883.43 L 1100.477 883.43 L 1100.477 883.43 Q 1100.477 901.409 1087.765 912.646 L 1087.765 912.646 L 1087.765 912.646 Q 1075.053 923.883 1049.63 923.883 L 1049.63 923.883 L 1049.63 923.883 Q 1031.791 923.883 1016.411 919.739 L 1016.411 919.739 L 1016.411 919.739 Q 1001.03 915.595 991.057 907.87 L 991.057 907.87 L 999.064 901.69 L 999.064 901.69 Q 1016.621 913.769 1049.63 913.769 L 1049.63 913.769 L 1049.63 913.769 Q 1070.84 913.769 1080.602 905.412 L 1080.602 905.412 L 1080.602 905.412 Q 1090.364 897.054 1090.364 883.43 L 1090.364 883.43 L 1090.364 883.43 Q 1090.364 869.805 1083.06 861.447 L 1083.06 861.447 L 1083.06 861.447 Q 1075.756 853.09 1059.322 853.09 L 1059.322 853.09 L 1044.011 853.09 L 1044.011 853.09 Q 1015.217 853.09 998.993 835.883 L 998.993 835.883 L 998.993 835.883 Q 982.77 818.677 982.77 792.41 L 982.77 792.41 L 982.77 792.41 Q 982.77 766.144 1001.451 748.937 L 1001.451 748.937 L 1001.451 748.937 Q 1020.133 731.731 1053.844 731.731 L 1053.844 731.731 L 1053.844 731.731 Q 1076.318 731.731 1095.772 737.911 L 1095.772 737.911 L 1095.772 737.911 Q 1115.226 744.091 1128.148 755.328 L 1128.148 755.328 L 1120.282 761.649 L 1120.282 761.649 Q 1108.764 752.238 1091.347 747.041 L 1091.347 747.041 L 1091.347 747.041 Q 1073.93 741.844 1053.844 741.844 L 1053.844 741.844 L 1053.844 741.844 Q 1024.206 741.844 1008.545 756.031 L 1008.545 756.031 L 1008.545 756.031 Q 992.883 770.217 992.883 792.41 L 992.883 792.41 L 992.883 792.41 Q 992.883 814.463 1006.087 828.72 L 1006.087 828.72 L 1006.087 828.72 Q 1019.29 842.977 1044.011 842.977 Z  M 1044.011 863.203 L 1044.011 863.203 L 1059.462 863.203 L 1059.462 863.203 Q 1070.278 863.203 1075.053 868.822 L 1075.053 868.822 L 1075.053 868.822 Q 1079.829 874.44 1079.829 883.43 L 1079.829 883.43 L 1079.829 883.43 Q 1079.829 903.656 1049.63 903.656 L 1049.63 903.656 L 1049.63 903.656 Q 1021.116 903.656 1006.789 895.228 L 1006.789 895.228 L 1014.936 889.048 L 1014.936 889.048 Q 1024.768 893.543 1049.63 893.543 L 1049.63 893.543 L 1049.63 893.543 Q 1061.71 893.543 1065.853 890.874 L 1065.853 890.874 L 1065.853 890.874 Q 1069.997 888.205 1069.997 883.43 L 1069.997 883.43 L 1069.997 883.43 Q 1069.997 878.794 1067.679 876.055 L 1067.679 876.055 L 1067.679 876.055 Q 1065.362 873.316 1059.181 873.316 L 1059.181 873.316 L 1044.011 873.316 L 1044.011 873.316 Q 1024.628 873.316 1008.966 866.996 L 1008.966 866.996 L 1008.966 866.996 Q 993.305 860.675 983.262 849.578 L 983.262 849.578 L 983.262 849.578 Q 973.219 838.482 967.881 823.874 L 967.881 823.874 L 967.881 823.874 Q 962.543 809.266 962.543 792.41 L 962.543 792.41 L 962.543 792.41 Q 962.543 778.926 966.336 766.846 L 966.336 766.846 L 966.336 766.846 Q 970.128 754.766 977.784 744.653 L 977.784 744.653 L 977.784 744.653 Q 985.439 734.54 996.184 727.166 L 996.184 727.166 L 996.184 727.166 Q 1006.929 719.791 1021.748 715.648 L 1021.748 715.648 L 1021.748 715.648 Q 1036.567 711.504 1053.844 711.504 L 1053.844 711.504 L 1053.844 711.504 Q 1080.953 711.504 1104.55 719.721 L 1104.55 719.721 L 1104.55 719.721 Q 1128.148 727.938 1143.88 742.687 L 1143.88 742.687 L 1135.733 748.727 L 1135.733 748.727 Q 1121.406 735.804 1099.915 728.711 L 1099.915 728.711 L 1099.915 728.711 Q 1078.425 721.617 1053.844 721.617 L 1053.844 721.617 L 1053.844 721.617 Q 1034.6 721.617 1019.079 727.166 L 1019.079 727.166 L 1019.079 727.166 Q 1003.558 732.714 993.515 742.406 L 993.515 742.406 L 993.515 742.406 Q 983.472 752.098 978.064 764.88 L 978.064 764.88 L 978.064 764.88 Q 972.657 777.662 972.657 792.41 L 972.657 792.41 L 972.657 792.41 Q 972.657 812.215 980.663 828.088 L 980.663 828.088 L 980.663 828.088 Q 988.669 843.96 1005.103 853.581 L 1005.103 853.581 L 1005.103 853.581 Q 1021.537 863.203 1044.011 863.203 Z " fill-rule="evenodd" fill="rgb(255,255,255)"/></g><path d=" M 1883.298 792.425 L 1883.298 891.124 L 1874.274 891.124 L 1874.274 827.414 L 1858.397 887.917 L 1858.397 887.917 Q 1857.811 890.229 1856.761 891.423 L 1856.761 891.423 L 1856.761 891.423 Q 1855.711 892.617 1854.505 892.617 L 1854.505 892.617 L 1854.505 892.617 Q 1853.334 892.617 1852.318 891.423 L 1852.318 891.423 L 1852.318 891.423 Q 1851.302 890.229 1850.717 887.917 L 1850.717 887.917 L 1834.77 827.414 L 1834.77 891.124 L 1825.816 891.124 L 1825.816 792.425 L 1825.816 792.425 Q 1825.816 789.068 1826.728 786.457 L 1826.728 786.457 L 1826.728 786.457 Q 1827.641 783.846 1829.122 782.951 L 1829.122 782.951 L 1829.122 782.951 Q 1829.845 782.578 1830.568 782.69 L 1830.568 782.69 L 1830.568 782.69 Q 1831.292 782.802 1831.963 783.361 L 1831.963 783.361 L 1831.963 783.361 Q 1832.635 783.921 1833.186 784.928 L 1833.186 784.928 L 1833.186 784.928 Q 1833.737 785.935 1834.116 787.352 L 1834.116 787.352 L 1854.505 864.118 L 1874.894 787.352 L 1874.894 787.352 Q 1875.686 784.518 1877.081 783.324 L 1877.081 783.324 L 1877.081 783.324 Q 1878.476 782.13 1879.992 782.951 L 1879.992 782.951 L 1879.992 782.951 Q 1881.438 783.846 1882.368 786.457 L 1882.368 786.457 L 1882.368 786.457 Q 1883.298 789.068 1883.298 792.425 L 1883.298 792.425 Z  M 1934.305 827.862 L 1934.305 847.407 L 1906.029 847.407 L 1906.029 827.862 L 1934.305 827.862 Z  M 1938.335 871.728 L 1938.335 891.124 L 1906.029 891.124 L 1906.029 891.124 Q 1904.169 891.124 1901.965 889.707 L 1901.965 889.707 L 1901.965 889.707 Q 1899.761 888.29 1897.884 885.044 L 1897.884 885.044 L 1897.884 885.044 Q 1896.007 881.799 1894.75 876.614 L 1894.75 876.614 L 1894.75 876.614 Q 1893.493 871.429 1893.493 863.895 L 1893.493 863.895 L 1893.493 793.917 L 1893.493 793.917 Q 1893.493 791.903 1893.837 790.113 L 1893.837 790.113 L 1893.837 790.113 Q 1894.181 788.322 1894.784 786.979 L 1894.784 786.979 L 1894.784 786.979 Q 1895.387 785.637 1896.213 784.891 L 1896.213 784.891 L 1896.213 784.891 Q 1897.04 784.145 1898.004 784.145 L 1898.004 784.145 L 1938.335 784.145 L 1938.335 803.541 L 1902.447 803.541 L 1902.447 863.895 L 1902.447 863.895 Q 1902.447 867.699 1903.377 869.714 L 1903.377 869.714 L 1903.377 869.714 Q 1904.307 871.728 1906.098 871.728 L 1906.098 871.728 L 1938.335 871.728 Z  M 1996.265 828.906 L 1996.265 846.363 L 1996.265 846.363 Q 1996.265 856.136 1994.698 864.342 L 1994.698 864.342 L 1994.698 864.342 Q 1993.131 872.548 1990.376 878.479 L 1990.376 878.479 L 1990.376 878.479 Q 1987.62 884.41 1983.832 887.767 L 1983.832 887.767 L 1983.832 887.767 Q 1980.043 891.124 1975.6 891.124 L 1975.6 891.124 L 1951.423 891.124 L 1951.423 891.124 Q 1950.458 891.124 1949.632 890.378 L 1949.632 890.378 L 1949.632 890.378 Q 1948.805 889.632 1948.202 888.327 L 1948.202 888.327 L 1948.202 888.327 Q 1947.6 887.021 1947.255 885.231 L 1947.255 885.231 L 1947.255 885.231 Q 1946.911 883.44 1946.911 881.352 L 1946.911 881.352 L 1946.911 793.917 L 1946.911 793.917 Q 1946.911 791.903 1947.255 790.113 L 1947.255 790.113 L 1947.255 790.113 Q 1947.6 788.322 1948.202 786.979 L 1948.202 786.979 L 1948.202 786.979 Q 1948.805 785.637 1949.632 784.891 L 1949.632 784.891 L 1949.632 784.891 Q 1950.458 784.145 1951.423 784.145 L 1951.423 784.145 L 1975.6 784.145 L 1975.6 784.145 Q 1980.043 784.145 1983.832 787.502 L 1983.832 787.502 L 1983.832 787.502 Q 1987.62 790.859 1990.376 796.79 L 1990.376 796.79 L 1990.376 796.79 Q 1993.131 802.721 1994.698 810.964 L 1994.698 810.964 L 1994.698 810.964 Q 1996.265 819.208 1996.265 828.906 L 1996.265 828.906 Z  M 1987.31 846.363 L 1987.31 828.906 L 1987.31 828.906 Q 1987.31 823.236 1986.467 818.536 L 1986.467 818.536 L 1986.467 818.536 Q 1985.623 813.836 1984.073 810.516 L 1984.073 810.516 L 1984.073 810.516 Q 1982.523 807.197 1980.37 805.369 L 1980.37 805.369 L 1980.37 805.369 Q 1978.218 803.541 1975.6 803.541 L 1975.6 803.541 L 1955.866 803.541 L 1955.866 871.728 L 1975.6 871.728 L 1975.6 871.728 Q 1978.218 871.728 1980.37 869.9 L 1980.37 869.9 L 1980.37 869.9 Q 1982.523 868.072 1984.073 864.753 L 1984.073 864.753 L 1984.073 864.753 Q 1985.623 861.433 1986.467 856.77 L 1986.467 856.77 L 1986.467 856.77 Q 1987.31 852.107 1987.31 846.363 L 1987.31 846.363 Z  M 2014.071 784.145 L 2014.071 891.124 L 2005.116 891.124 L 2005.116 784.145 L 2014.071 784.145 Z  M 2073 793.917 L 2073 891.124 L 2064.045 891.124 L 2064.045 864.864 L 2032.566 864.864 L 2032.566 891.124 L 2023.611 891.124 L 2023.611 837.634 L 2023.611 837.634 Q 2023.611 825.922 2025.471 816.074 L 2025.471 816.074 L 2025.471 816.074 Q 2027.331 806.227 2030.637 799.14 L 2030.637 799.14 L 2030.637 799.14 Q 2033.944 792.052 2038.455 788.098 L 2038.455 788.098 L 2038.455 788.098 Q 2042.967 784.145 2048.306 784.145 L 2048.306 784.145 L 2068.488 784.145 L 2068.488 784.145 Q 2069.418 784.145 2070.245 784.891 L 2070.245 784.891 L 2070.245 784.891 Q 2071.071 785.637 2071.691 786.979 L 2071.691 786.979 L 2071.691 786.979 Q 2072.311 788.322 2072.656 790.113 L 2072.656 790.113 L 2072.656 790.113 Q 2073 791.903 2073 793.917 L 2073 793.917 Z  M 2032.566 837.634 L 2032.566 845.468 L 2064.045 845.468 L 2064.045 803.541 L 2048.306 803.541 L 2048.306 803.541 Q 2047.892 803.541 2046.566 803.802 L 2046.566 803.802 L 2046.566 803.802 Q 2045.24 804.063 2043.501 805.108 L 2043.501 805.108 L 2043.501 805.108 Q 2041.762 806.152 2039.833 808.316 L 2039.833 808.316 L 2039.833 808.316 Q 2037.904 810.479 2036.286 814.284 L 2036.286 814.284 L 2036.286 814.284 Q 2034.667 818.089 2033.616 823.796 L 2033.616 823.796 L 2033.616 823.796 Q 2032.566 829.503 2032.566 837.634 L 2032.566 837.634 Z  M 1630.431 784.145 L 1630.431 803.541 L 1610.696 803.541 L 1610.696 891.124 L 1601.741 891.124 L 1601.741 803.541 L 1581.972 803.541 L 1581.972 784.145 L 1630.431 784.145 Z  M 1677.615 827.862 L 1677.615 847.407 L 1649.339 847.407 L 1649.339 827.862 L 1677.615 827.862 Z  M 1681.645 871.728 L 1681.645 891.124 L 1649.339 891.124 L 1649.339 891.124 Q 1647.479 891.124 1645.275 889.707 L 1645.275 889.707 L 1645.275 889.707 Q 1643.071 888.29 1641.194 885.044 L 1641.194 885.044 L 1641.194 885.044 Q 1639.317 881.799 1638.059 876.614 L 1638.059 876.614 L 1638.059 876.614 Q 1636.802 871.429 1636.802 863.895 L 1636.802 863.895 L 1636.802 793.917 L 1636.802 793.917 Q 1636.802 791.903 1637.147 790.113 L 1637.147 790.113 L 1637.147 790.113 Q 1637.491 788.322 1638.094 786.979 L 1638.094 786.979 L 1638.094 786.979 Q 1638.697 785.637 1639.523 784.891 L 1639.523 784.891 L 1639.523 784.891 Q 1640.35 784.145 1641.314 784.145 L 1641.314 784.145 L 1681.645 784.145 L 1681.645 803.541 L 1645.757 803.541 L 1645.757 863.895 L 1645.757 863.895 Q 1645.757 867.699 1646.687 869.714 L 1646.687 869.714 L 1646.687 869.714 Q 1647.617 871.728 1649.408 871.728 L 1649.408 871.728 L 1681.645 871.728 Z  M 1734.512 871.728 L 1734.512 891.124 L 1702.206 891.124 L 1702.206 891.124 Q 1700.966 891.124 1699.537 890.49 L 1699.537 890.49 L 1699.537 890.49 Q 1698.108 889.856 1696.713 888.513 L 1696.713 888.513 L 1696.713 888.513 Q 1695.318 887.171 1694.044 885.044 L 1694.044 885.044 L 1694.044 885.044 Q 1692.769 882.918 1691.788 879.897 L 1691.788 879.897 L 1691.788 879.897 Q 1690.806 876.875 1690.221 872.884 L 1690.221 872.884 L 1690.221 872.884 Q 1689.635 868.893 1689.635 863.895 L 1689.635 863.895 L 1689.635 811.374 L 1689.635 811.374 Q 1689.635 808.689 1689.928 805.593 L 1689.928 805.593 L 1689.928 805.593 Q 1690.221 802.497 1690.841 799.475 L 1690.841 799.475 L 1690.841 799.475 Q 1691.46 796.454 1692.459 793.694 L 1692.459 793.694 L 1692.459 793.694 Q 1693.458 790.933 1694.853 788.807 L 1694.853 788.807 L 1694.853 788.807 Q 1696.248 786.681 1698.073 785.413 L 1698.073 785.413 L 1698.073 785.413 Q 1699.899 784.145 1702.206 784.145 L 1702.206 784.145 L 1734.512 784.145 L 1734.512 803.541 L 1702.206 803.541 L 1702.206 803.541 Q 1700.45 803.541 1699.52 805.555 L 1699.52 805.555 L 1699.52 805.555 Q 1698.59 807.57 1698.59 811.524 L 1698.59 811.524 L 1698.59 863.895 L 1698.59 863.895 Q 1698.59 867.625 1699.537 869.676 L 1699.537 869.676 L 1699.537 869.676 Q 1700.484 871.728 1702.206 871.728 L 1702.206 871.728 L 1734.512 871.728 Z  M 1752.008 784.145 L 1752.008 827.862 L 1783.453 827.862 L 1783.453 784.145 L 1792.408 784.145 L 1792.408 891.124 L 1783.453 891.124 L 1783.453 847.407 L 1752.008 847.407 L 1752.008 891.124 L 1743.053 891.124 L 1743.053 784.145 L 1752.008 784.145 Z  M 1322.354 859.642 L 1322.354 859.642 L 1322.354 859.642 Q 1322.354 865.387 1321.683 869.975 L 1321.683 869.975 L 1321.683 869.975 Q 1321.011 874.563 1319.909 878.069 L 1319.909 878.069 L 1319.909 878.069 Q 1318.807 881.575 1317.326 884.037 L 1317.326 884.037 L 1317.326 884.037 Q 1315.845 886.499 1314.261 888.066 L 1314.261 888.066 L 1314.261 888.066 Q 1312.676 889.632 1311.04 890.378 L 1311.04 890.378 L 1311.04 890.378 Q 1309.404 891.124 1307.958 891.124 L 1307.958 891.124 L 1273.413 891.124 L 1273.413 871.728 L 1307.958 871.728 L 1307.958 871.728 Q 1310.541 871.728 1311.97 868.445 L 1311.97 868.445 L 1311.97 868.445 Q 1313.4 865.163 1313.4 859.642 L 1313.4 859.642 L 1313.4 859.642 Q 1313.4 856.957 1313.021 854.718 L 1313.021 854.718 L 1313.021 854.718 Q 1312.642 852.48 1311.936 850.839 L 1311.936 850.839 L 1311.936 850.839 Q 1311.23 849.198 1310.214 848.303 L 1310.214 848.303 L 1310.214 848.303 Q 1309.198 847.407 1307.958 847.407 L 1307.958 847.407 L 1287.362 847.407 L 1287.362 847.407 Q 1285.192 847.407 1282.678 845.729 L 1282.678 845.729 L 1282.678 845.729 Q 1280.164 844.05 1278.011 840.32 L 1278.011 840.32 L 1278.011 840.32 Q 1275.859 836.59 1274.429 830.547 L 1274.429 830.547 L 1274.429 830.547 Q 1273 824.504 1273 815.776 L 1273 815.776 L 1273 815.776 Q 1273 807.047 1274.429 801.042 L 1274.429 801.042 L 1274.429 801.042 Q 1275.859 795.036 1278.011 791.269 L 1278.011 791.269 L 1278.011 791.269 Q 1280.164 787.502 1282.678 785.823 L 1282.678 785.823 L 1282.678 785.823 Q 1285.192 784.145 1287.362 784.145 L 1287.362 784.145 L 1317.842 784.145 L 1317.842 803.541 L 1287.362 803.541 L 1287.362 803.541 Q 1284.813 803.541 1283.384 806.898 L 1283.384 806.898 L 1283.384 806.898 Q 1281.955 810.255 1281.955 815.776 L 1281.955 815.776 L 1281.955 815.776 Q 1281.955 821.371 1283.384 824.616 L 1283.384 824.616 L 1283.384 824.616 Q 1284.813 827.862 1287.362 827.862 L 1287.362 827.862 L 1307.958 827.862 L 1308.027 827.862 L 1308.027 827.862 Q 1309.473 827.936 1311.092 828.719 L 1311.092 828.719 L 1311.092 828.719 Q 1312.711 829.503 1314.312 831.144 L 1314.312 831.144 L 1314.312 831.144 Q 1315.914 832.785 1317.36 835.285 L 1317.36 835.285 L 1317.36 835.285 Q 1318.807 837.784 1319.926 841.29 L 1319.926 841.29 L 1319.926 841.29 Q 1321.045 844.796 1321.7 849.347 L 1321.7 849.347 L 1321.7 849.347 Q 1322.354 853.898 1322.354 859.642 Z  M 1378.183 784.145 L 1378.183 881.352 L 1378.183 881.352 Q 1378.183 883.44 1377.839 885.231 L 1377.839 885.231 L 1377.839 885.231 Q 1377.495 887.021 1376.875 888.327 L 1376.875 888.327 L 1376.875 888.327 Q 1376.255 889.632 1375.428 890.378 L 1375.428 890.378 L 1375.428 890.378 Q 1374.602 891.124 1373.672 891.124 L 1373.672 891.124 L 1353.489 891.124 L 1353.489 891.124 Q 1350.63 891.124 1347.703 889.782 L 1347.703 889.782 L 1347.703 889.782 Q 1344.775 888.439 1342.037 885.641 L 1342.037 885.641 L 1342.037 885.641 Q 1339.299 882.844 1336.888 878.517 L 1336.888 878.517 L 1336.888 878.517 Q 1334.478 874.19 1332.669 868.259 L 1332.669 868.259 L 1332.669 868.259 Q 1330.861 862.328 1329.828 854.681 L 1329.828 854.681 L 1329.828 854.681 Q 1328.795 847.034 1328.795 837.634 L 1328.795 837.634 L 1328.795 784.145 L 1337.749 784.145 L 1337.749 837.634 L 1337.749 837.634 Q 1337.749 845.841 1338.8 851.511 L 1338.8 851.511 L 1338.8 851.511 Q 1339.85 857.18 1341.469 860.985 L 1341.469 860.985 L 1341.469 860.985 Q 1343.088 864.79 1345.017 866.953 L 1345.017 866.953 L 1345.017 866.953 Q 1346.945 869.117 1348.685 870.161 L 1348.685 870.161 L 1348.685 870.161 Q 1350.424 871.206 1351.75 871.467 L 1351.75 871.467 L 1351.75 871.467 Q 1353.076 871.728 1353.489 871.728 L 1353.489 871.728 L 1369.229 871.728 L 1369.229 784.145 L 1378.183 784.145 Z  M 1437.87 863.895 L 1437.87 867.625 L 1437.87 867.625 Q 1437.87 871.206 1437.302 875.309 L 1437.302 875.309 L 1437.302 875.309 Q 1436.733 879.412 1435.442 882.918 L 1435.442 882.918 L 1435.442 882.918 Q 1434.15 886.425 1432.084 888.775 L 1432.084 888.775 L 1432.084 888.775 Q 1430.017 891.124 1427.021 891.124 L 1427.021 891.124 L 1393.028 891.124 L 1393.028 891.124 Q 1392.063 891.124 1391.237 890.378 L 1391.237 890.378 L 1391.237 890.378 Q 1390.41 889.632 1389.807 888.327 L 1389.807 888.327 L 1389.807 888.327 Q 1389.205 887.021 1388.86 885.231 L 1388.86 885.231 L 1388.86 885.231 Q 1388.516 883.44 1388.516 881.352 L 1388.516 881.352 L 1388.516 793.917 L 1388.516 793.917 Q 1388.516 791.903 1388.86 790.113 L 1388.86 790.113 L 1388.86 790.113 Q 1389.205 788.322 1389.807 786.979 L 1389.807 786.979 L 1389.807 786.979 Q 1390.41 785.637 1391.237 784.891 L 1391.237 784.891 L 1391.237 784.891 Q 1392.063 784.145 1393.028 784.145 L 1393.028 784.145 L 1422.991 784.145 L 1422.991 784.145 Q 1424.645 784.145 1426.539 785.413 L 1426.539 785.413 L 1426.539 785.413 Q 1428.433 786.681 1430.069 789.479 L 1430.069 789.479 L 1430.069 789.479 Q 1431.705 792.276 1432.79 796.752 L 1432.79 796.752 L 1432.79 796.752 Q 1433.875 801.228 1433.875 807.719 L 1433.875 807.719 L 1433.875 811.374 L 1433.875 811.374 Q 1433.875 816.522 1433.083 822.453 L 1433.083 822.453 L 1433.083 822.453 Q 1432.291 828.384 1430.534 833.681 L 1430.534 833.681 L 1430.534 833.681 Q 1432.049 835.695 1433.375 838.53 L 1433.375 838.53 L 1433.375 838.53 Q 1434.701 841.365 1435.7 845.095 L 1435.7 845.095 L 1435.7 845.095 Q 1436.699 848.825 1437.284 853.525 L 1437.284 853.525 L 1437.284 853.525 Q 1437.87 858.225 1437.87 863.895 L 1437.87 863.895 Z  M 1428.915 867.475 L 1428.915 863.895 L 1428.915 863.895 Q 1428.915 860.09 1428.364 857.068 L 1428.364 857.068 L 1428.364 857.068 Q 1427.813 854.047 1426.814 851.884 L 1426.814 851.884 L 1426.814 851.884 Q 1425.816 849.72 1424.403 848.564 L 1424.403 848.564 L 1424.403 848.564 Q 1422.991 847.407 1421.235 847.407 L 1421.235 847.407 L 1401.052 847.407 L 1401.052 827.862 L 1417.205 827.862 L 1417.205 827.862 Q 1418.962 827.862 1420.374 826.705 L 1420.374 826.705 L 1420.374 826.705 Q 1421.786 825.549 1422.785 823.385 L 1422.785 823.385 L 1422.785 823.385 Q 1423.784 821.222 1424.317 818.201 L 1424.317 818.201 L 1424.317 818.201 Q 1424.851 815.179 1424.851 811.374 L 1424.851 811.374 L 1424.851 807.719 L 1424.851 807.719 Q 1424.851 803.541 1422.991 803.541 L 1422.991 803.541 L 1397.47 803.541 L 1397.47 871.728 L 1427.021 871.728 L 1427.021 871.728 Q 1427.262 871.728 1427.607 871.653 L 1427.607 871.653 L 1427.607 871.653 Q 1427.951 871.579 1428.226 871.206 L 1428.226 871.206 L 1428.226 871.206 Q 1428.502 870.833 1428.709 869.937 L 1428.709 869.937 L 1428.709 869.937 Q 1428.915 869.042 1428.915 867.475 L 1428.915 867.475 Z  M 1494.112 793.917 L 1494.112 891.124 L 1485.158 891.124 L 1485.158 864.864 L 1453.678 864.864 L 1453.678 891.124 L 1444.724 891.124 L 1444.724 837.634 L 1444.724 837.634 Q 1444.724 825.922 1446.584 816.074 L 1446.584 816.074 L 1446.584 816.074 Q 1448.443 806.227 1451.75 799.14 L 1451.75 799.14 L 1451.75 799.14 Q 1455.056 792.052 1459.568 788.098 L 1459.568 788.098 L 1459.568 788.098 Q 1464.08 784.145 1469.418 784.145 L 1469.418 784.145 L 1489.601 784.145 L 1489.601 784.145 Q 1490.531 784.145 1491.357 784.891 L 1491.357 784.891 L 1491.357 784.891 Q 1492.184 785.637 1492.804 786.979 L 1492.804 786.979 L 1492.804 786.979 Q 1493.424 788.322 1493.768 790.113 L 1493.768 790.113 L 1493.768 790.113 Q 1494.112 791.903 1494.112 793.917 L 1494.112 793.917 Z  M 1453.678 837.634 L 1453.678 845.468 L 1485.158 845.468 L 1485.158 803.541 L 1469.418 803.541 L 1469.418 803.541 Q 1469.005 803.541 1467.679 803.802 L 1467.679 803.802 L 1467.679 803.802 Q 1466.353 804.063 1464.614 805.108 L 1464.614 805.108 L 1464.614 805.108 Q 1462.874 806.152 1460.946 808.316 L 1460.946 808.316 L 1460.946 808.316 Q 1459.017 810.479 1457.398 814.284 L 1457.398 814.284 L 1457.398 814.284 Q 1455.779 818.089 1454.729 823.796 L 1454.729 823.796 L 1454.729 823.796 Q 1453.678 829.503 1453.678 837.634 L 1453.678 837.634 Z  M 1553.868 807.719 L 1553.868 820.103 L 1553.868 820.103 Q 1553.868 826.743 1553.11 831.965 L 1553.11 831.965 L 1553.11 831.965 Q 1552.353 837.187 1551.061 841.178 L 1551.061 841.178 L 1551.061 841.178 Q 1549.769 845.169 1548.082 848.004 L 1548.082 848.004 L 1548.082 848.004 Q 1546.394 850.839 1544.552 852.667 L 1544.552 852.667 L 1544.552 852.667 Q 1542.709 854.495 1540.832 855.315 L 1540.832 855.315 L 1540.832 855.315 Q 1538.955 856.136 1537.302 856.136 L 1537.302 856.136 L 1556.003 891.124 L 1542.158 891.124 L 1523.491 856.136 L 1517.05 856.136 L 1517.05 836.739 L 1537.302 836.739 L 1537.302 836.739 Q 1538.989 836.441 1540.384 835.21 L 1540.384 835.21 L 1540.384 835.21 Q 1541.779 833.979 1542.795 831.89 L 1542.795 831.89 L 1542.795 831.89 Q 1543.811 829.801 1544.362 826.854 L 1544.362 826.854 L 1544.362 826.854 Q 1544.913 823.908 1544.913 820.103 L 1544.913 820.103 L 1544.913 807.868 L 1544.913 807.868 Q 1544.913 806.227 1544.724 805.369 L 1544.724 805.369 L 1544.724 805.369 Q 1544.534 804.511 1544.242 804.101 L 1544.242 804.101 L 1544.242 804.101 Q 1543.949 803.69 1543.622 803.616 L 1543.622 803.616 L 1543.622 803.616 Q 1543.294 803.541 1543.019 803.541 L 1543.019 803.541 L 1513.468 803.541 L 1513.468 891.124 L 1504.514 891.124 L 1504.514 793.917 L 1504.514 793.917 Q 1504.514 791.903 1504.858 790.113 L 1504.858 790.113 L 1504.858 790.113 Q 1505.203 788.322 1505.805 786.979 L 1505.805 786.979 L 1505.805 786.979 Q 1506.408 785.637 1507.235 784.891 L 1507.235 784.891 L 1507.235 784.891 Q 1508.061 784.145 1509.025 784.145 L 1509.025 784.145 L 1543.019 784.145 L 1543.019 784.145 Q 1546.015 784.145 1548.082 786.494 L 1548.082 786.494 L 1548.082 786.494 Q 1550.148 788.844 1551.44 792.388 L 1551.44 792.388 L 1551.44 792.388 Q 1552.731 795.932 1553.3 800.035 L 1553.3 800.035 L 1553.3 800.035 Q 1553.868 804.138 1553.868 807.719 L 1553.868 807.719 Z " fill-rule="evenodd" fill="rgb(0,66,98)"/></g></svg>