<?xml version="1.0" standalone="no"?><!-- Generator: Gravit.io --><svg xmlns="http://www.w3.org/2000/svg" xmlns:xlink="http://www.w3.org/1999/xlink" style="isolation:isolate" viewBox="1770 168.155 940 359.333" width="940" height="359.333"><g id="Group"><g id="Group"><path d=" M 2041.16 347.821 C 2041.16 248.661 2121.666 168.155 2220.827 168.155 C 2319.987 168.155 2400.493 248.661 2400.493 347.821 C 2400.493 446.982 2319.987 527.488 2220.827 527.488 C 2121.666 527.488 2041.16 446.982 2041.16 347.821 Z " fill="rgb(255,119,0)"/><path d=" M 2116.08 395.322 L 2116.08 395.322 Q 2108.64 395.322 2102.656 391.587 L 2102.656 391.587 L 2102.656 391.587 Q 2096.672 387.853 2093.222 380.769 L 2093.222 380.769 L 2093.222 380.769 Q 2089.771 373.686 2089.771 364.021 L 2089.771 364.021 L 2089.771 364.021 Q 2089.771 347.327 2096.78 333.105 L 2096.78 333.105 L 2096.78 333.105 Q 2103.788 318.882 2117.481 310.261 L 2117.481 310.261 L 2117.481 310.261 Q 2131.174 301.639 2150.366 301.639 L 2150.366 301.639 L 2150.366 301.639 Q 2155.326 301.639 2160.986 302.408 L 2160.986 302.408 L 2160.986 302.408 Q 2166.647 303.177 2171.284 304.714 L 2171.284 304.714 L 2171.284 304.714 Q 2174.302 305.593 2174.302 309.108 L 2174.302 309.108 L 2174.302 309.108 Q 2174.302 311.963 2172.2 314.489 L 2172.2 314.489 L 2172.2 314.489 Q 2170.098 317.015 2167.294 317.015 L 2167.294 317.015 L 2167.294 317.015 Q 2166.432 317.015 2166 316.905 L 2166 316.905 L 2166 316.905 Q 2160.393 315.587 2156.404 314.983 L 2156.404 314.983 L 2156.404 314.983 Q 2152.415 314.379 2147.994 314.379 L 2147.994 314.379 L 2147.994 314.379 Q 2134.301 314.379 2124.705 321.134 L 2124.705 321.134 L 2124.705 321.134 Q 2115.109 327.888 2110.365 338.98 L 2110.365 338.98 L 2110.365 338.98 Q 2105.621 350.073 2105.621 362.923 L 2105.621 362.923 L 2105.621 362.923 Q 2105.621 372.258 2109.233 377.365 L 2109.233 377.365 L 2109.233 377.365 Q 2112.845 382.472 2118.667 382.472 L 2118.667 382.472 L 2118.667 382.472 Q 2125.244 382.472 2130.204 376.981 L 2130.204 376.981 L 2130.204 376.981 Q 2135.164 371.489 2139.261 359.189 L 2139.261 359.189 L 2139.261 359.189 Q 2143.358 346.888 2147.347 325.801 L 2147.347 325.801 L 2147.347 325.801 Q 2147.994 322.726 2149.935 321.628 L 2149.935 321.628 L 2149.935 321.628 Q 2151.876 320.53 2155.11 320.53 L 2155.11 320.53 L 2155.11 320.53 Q 2162.765 320.53 2162.765 325.582 L 2162.765 325.582 L 2162.765 325.582 Q 2162.765 326.46 2162.442 327.778 L 2162.442 327.778 L 2162.442 327.778 Q 2159.639 338.431 2157.32 351.336 L 2157.32 351.336 L 2157.32 351.336 Q 2155.003 364.241 2155.003 370.94 L 2155.003 370.94 L 2155.003 370.94 Q 2155.003 376.871 2156.727 379.561 L 2156.727 379.561 L 2156.727 379.561 Q 2158.453 382.252 2162.011 382.252 L 2162.011 382.252 L 2162.011 382.252 Q 2165.461 382.252 2168.588 379.891 L 2168.588 379.891 L 2168.588 379.891 Q 2171.715 377.53 2176.459 371.819 L 2176.459 371.819 L 2176.459 371.819 Q 2177.752 370.281 2179.37 370.281 L 2179.37 370.281 L 2179.37 370.281 Q 2180.772 370.281 2181.58 371.599 L 2181.58 371.599 L 2181.58 371.599 Q 2182.389 372.917 2182.389 375.223 L 2182.389 375.223 L 2182.389 375.223 Q 2182.389 379.507 2180.34 382.033 L 2180.34 382.033 L 2180.34 382.033 Q 2175.057 388.512 2169.99 391.917 L 2169.99 391.917 L 2169.99 391.917 Q 2164.922 395.322 2157.59 395.322 L 2157.59 395.322 L 2157.59 395.322 Q 2150.043 395.322 2145.407 390.874 L 2145.407 390.874 L 2145.407 390.874 Q 2140.77 386.426 2139.584 378.299 L 2139.584 378.299 L 2139.584 378.299 Q 2131.606 395.322 2116.08 395.322 L 2116.08 395.322 Z  M 2193.494 395.322 L 2193.494 395.322 Q 2189.505 395.322 2187.78 393.509 L 2187.78 393.509 L 2187.78 393.509 Q 2186.055 391.697 2186.055 386.645 L 2186.055 386.645 L 2186.055 386.645 Q 2186.055 383.241 2186.702 378.408 L 2186.702 378.408 L 2186.702 378.408 Q 2187.348 373.576 2188.966 363.801 L 2188.966 363.801 L 2188.966 363.801 Q 2189.181 362.483 2190.691 353.093 L 2190.691 353.093 L 2190.691 353.093 Q 2192.2 343.703 2193.387 333.379 L 2193.387 333.379 L 2193.387 333.379 Q 2194.465 324.593 2194.465 320.2 L 2194.465 320.2 L 2194.465 320.2 Q 2194.465 315.258 2190.907 315.258 L 2190.907 315.258 L 2190.907 315.258 Q 2188.211 315.258 2184.168 318.168 L 2184.168 318.168 L 2184.168 318.168 Q 2180.124 321.079 2175.488 327.449 L 2175.488 327.449 L 2175.488 327.449 Q 2173.979 329.535 2172.146 329.535 L 2172.146 329.535 L 2172.146 329.535 Q 2170.636 329.535 2169.504 328.053 L 2169.504 328.053 L 2169.504 328.053 Q 2168.372 326.57 2168.372 324.703 L 2168.372 324.703 L 2168.372 324.703 Q 2168.372 322.836 2169.019 321.134 L 2169.019 321.134 L 2169.019 321.134 Q 2169.666 319.431 2171.391 317.015 L 2171.391 317.015 L 2171.391 317.015 Q 2176.674 309.657 2183.144 305.648 L 2183.144 305.648 L 2183.144 305.648 Q 2189.613 301.639 2196.729 301.639 L 2196.729 301.639 L 2196.729 301.639 Q 2202.659 301.639 2205.624 305.374 L 2205.624 305.374 L 2205.624 305.374 Q 2208.589 309.108 2208.589 316.246 L 2208.589 316.246 L 2208.589 316.246 Q 2208.589 322.616 2206.864 334.697 L 2206.864 334.697 L 2206.864 334.697 Q 2212.255 318.443 2220.557 310.041 L 2220.557 310.041 L 2220.557 310.041 Q 2228.859 301.639 2240.072 301.639 L 2240.072 301.639 L 2240.072 301.639 Q 2248.914 301.639 2253.388 306.746 L 2253.388 306.746 L 2253.388 306.746 Q 2257.863 311.853 2257.863 320.42 L 2257.863 320.42 L 2257.863 320.42 Q 2257.863 325.252 2256.462 332.171 L 2256.462 332.171 L 2249.884 363.581 L 2249.884 363.581 Q 2248.806 369.073 2248.806 373.027 L 2248.806 373.027 L 2248.806 373.027 Q 2248.806 377.639 2250.909 379.946 L 2250.909 379.946 L 2250.909 379.946 Q 2253.011 382.252 2256.785 382.252 L 2256.785 382.252 L 2256.785 382.252 Q 2260.343 382.252 2263.739 379.836 L 2263.739 379.836 L 2263.739 379.836 Q 2267.136 377.42 2271.771 371.819 L 2271.771 371.819 L 2271.771 371.819 Q 2273.066 370.281 2274.683 370.281 L 2274.683 370.281 L 2274.683 370.281 Q 2276.085 370.281 2276.893 371.599 L 2276.893 371.599 L 2276.893 371.599 Q 2277.701 372.917 2277.701 375.223 L 2277.701 375.223 L 2277.701 375.223 Q 2277.701 379.507 2275.653 382.033 L 2275.653 382.033 L 2275.653 382.033 Q 2270.047 388.952 2264.548 392.136 L 2264.548 392.136 L 2264.548 392.136 Q 2259.049 395.322 2253.011 395.322 L 2253.011 395.322 L 2253.011 395.322 Q 2243.846 395.322 2238.671 389.775 L 2238.671 389.775 L 2238.671 389.775 Q 2233.495 384.229 2233.495 374.894 L 2233.495 374.894 L 2233.495 374.894 Q 2233.495 371.269 2234.088 366.986 L 2234.088 366.986 L 2234.088 366.986 Q 2234.681 362.703 2236.083 356.113 L 2236.083 356.113 L 2240.396 336.015 L 2240.396 336.015 Q 2240.611 335.027 2241.151 332.501 L 2241.151 332.501 L 2241.151 332.501 Q 2241.69 329.975 2242.013 327.723 L 2242.013 327.723 L 2242.013 327.723 Q 2242.337 325.472 2242.337 323.275 L 2242.337 323.275 L 2242.337 323.275 Q 2242.337 319.761 2240.396 317.674 L 2240.396 317.674 L 2240.396 317.674 Q 2238.455 315.587 2234.897 315.587 L 2234.897 315.587 L 2234.897 315.587 Q 2228.428 315.587 2221.959 322.616 L 2221.959 322.616 L 2221.959 322.616 Q 2215.489 329.645 2209.991 345.295 L 2209.991 345.295 L 2209.991 345.295 Q 2204.492 360.946 2201.365 385.327 L 2201.365 385.327 L 2201.365 385.327 Q 2200.611 390.928 2199.155 393.125 L 2199.155 393.125 L 2199.155 393.125 Q 2197.699 395.322 2193.494 395.322 L 2193.494 395.322 Z  M 2297.002 395.322 L 2297.002 395.322 Q 2290.748 395.322 2282.877 394.223 L 2282.877 394.223 L 2282.877 394.223 Q 2278.564 393.674 2276.947 391.917 L 2276.947 391.917 L 2276.947 391.917 Q 2275.329 390.16 2275.545 386.206 L 2275.545 386.206 L 2275.545 386.206 Q 2276.3 375.333 2279.103 359.353 L 2279.103 359.353 L 2279.103 359.353 Q 2281.907 343.374 2285.896 328.547 L 2285.896 328.547 L 2285.896 328.547 Q 2286.651 325.801 2288.915 324.703 L 2288.915 324.703 L 2288.915 324.703 Q 2291.179 323.605 2294.845 323.605 L 2294.845 323.605 L 2294.845 323.605 Q 2301.422 323.605 2301.422 327.339 L 2301.422 327.339 L 2301.422 327.339 Q 2301.422 328.876 2300.775 330.853 L 2300.775 330.853 L 2300.775 330.853 Q 2297.972 339.64 2295.168 354.411 L 2295.168 354.411 L 2295.168 354.411 Q 2292.365 369.183 2291.179 382.582 L 2291.179 382.582 L 2291.179 382.582 Q 2294.414 382.911 2298.511 382.911 L 2298.511 382.911 L 2298.511 382.911 Q 2317.379 382.911 2326.706 371.269 L 2326.706 371.269 L 2326.706 371.269 Q 2336.032 359.628 2336.032 340.189 L 2336.032 340.189 L 2336.032 340.189 Q 2336.032 327.119 2328.701 319.98 L 2328.701 319.98 L 2328.701 319.98 Q 2321.369 312.842 2307.999 312.842 L 2307.999 312.842 L 2307.999 312.842 Q 2299.374 312.842 2290.91 315.587 L 2290.91 315.587 L 2290.91 315.587 Q 2282.446 318.333 2275.653 322.836 L 2275.653 322.836 L 2275.653 322.836 Q 2274.252 323.824 2272.634 323.824 L 2272.634 323.824 L 2272.634 323.824 Q 2270.801 323.824 2269.723 322.232 L 2269.723 322.232 L 2269.723 322.232 Q 2268.645 320.639 2268.645 318.333 L 2268.645 318.333 L 2268.645 318.333 Q 2268.645 315.697 2269.508 313.995 L 2269.508 313.995 L 2269.508 313.995 Q 2270.37 312.292 2272.419 310.865 L 2272.419 310.865 L 2272.419 310.865 Q 2279.858 305.703 2289.885 303.012 L 2289.885 303.012 L 2289.885 303.012 Q 2299.912 300.321 2309.185 300.321 L 2309.185 300.321 L 2309.185 300.321 Q 2322.339 300.321 2331.935 304.989 L 2331.935 304.989 L 2331.935 304.989 Q 2341.531 309.657 2346.706 318.662 L 2346.706 318.662 L 2346.706 318.662 Q 2351.882 327.668 2351.882 340.408 L 2351.882 340.408 L 2351.882 340.408 Q 2351.882 356.992 2345.413 369.347 L 2345.413 369.347 L 2345.413 369.347 Q 2338.943 381.703 2326.544 388.512 L 2326.544 388.512 L 2326.544 388.512 Q 2314.145 395.322 2297.002 395.322 L 2297.002 395.322 Z " fill-rule="evenodd" fill="rgb(255,255,255)"/></g><path d=" M 1829.872 300.321 L 1829.872 317.546 L 1805.489 317.546 L 1805.489 395.321 L 1794.426 395.321 L 1794.426 317.546 L 1770 317.546 L 1770 300.321 L 1829.872 300.321 Z  M 1888.17 339.143 L 1888.17 356.5 L 1853.234 356.5 L 1853.234 339.143 L 1888.17 339.143 Z  M 1893.149 378.097 L 1893.149 395.321 L 1853.234 395.321 L 1853.234 395.321 Q 1850.936 395.321 1848.213 394.063 L 1848.213 394.063 L 1848.213 394.063 Q 1845.489 392.804 1843.17 389.922 L 1843.17 389.922 L 1843.17 389.922 Q 1840.851 387.04 1839.298 382.436 L 1839.298 382.436 L 1839.298 382.436 Q 1837.745 377.832 1837.745 371.141 L 1837.745 371.141 L 1837.745 309 L 1837.745 309 Q 1837.745 307.211 1838.17 305.621 L 1838.17 305.621 L 1838.17 305.621 Q 1838.596 304.031 1839.34 302.839 L 1839.34 302.839 L 1839.34 302.839 Q 1840.085 301.646 1841.106 300.984 L 1841.106 300.984 L 1841.106 300.984 Q 1842.128 300.321 1843.319 300.321 L 1843.319 300.321 L 1893.149 300.321 L 1893.149 317.546 L 1848.809 317.546 L 1848.809 371.141 L 1848.809 371.141 Q 1848.809 374.52 1849.957 376.308 L 1849.957 376.308 L 1849.957 376.308 Q 1851.106 378.097 1853.319 378.097 L 1853.319 378.097 L 1893.149 378.097 Z  M 1958.468 378.097 L 1958.468 395.321 L 1918.553 395.321 L 1918.553 395.321 Q 1917.021 395.321 1915.255 394.758 L 1915.255 394.758 L 1915.255 394.758 Q 1913.489 394.195 1911.766 393.003 L 1911.766 393.003 L 1911.766 393.003 Q 1910.043 391.81 1908.468 389.922 L 1908.468 389.922 L 1908.468 389.922 Q 1906.894 388.034 1905.681 385.351 L 1905.681 385.351 L 1905.681 385.351 Q 1904.468 382.668 1903.745 379.124 L 1903.745 379.124 L 1903.745 379.124 Q 1903.021 375.579 1903.021 371.141 L 1903.021 371.141 L 1903.021 324.502 L 1903.021 324.502 Q 1903.021 322.117 1903.383 319.368 L 1903.383 319.368 L 1903.383 319.368 Q 1903.745 316.619 1904.511 313.935 L 1904.511 313.935 L 1904.511 313.935 Q 1905.277 311.252 1906.511 308.801 L 1906.511 308.801 L 1906.511 308.801 Q 1907.745 306.35 1909.468 304.462 L 1909.468 304.462 L 1909.468 304.462 Q 1911.191 302.574 1913.447 301.448 L 1913.447 301.448 L 1913.447 301.448 Q 1915.702 300.321 1918.553 300.321 L 1918.553 300.321 L 1958.468 300.321 L 1958.468 317.546 L 1918.553 317.546 L 1918.553 317.546 Q 1916.383 317.546 1915.234 319.335 L 1915.234 319.335 L 1915.234 319.335 Q 1914.085 321.123 1914.085 324.635 L 1914.085 324.635 L 1914.085 371.141 L 1914.085 371.141 Q 1914.085 374.453 1915.255 376.275 L 1915.255 376.275 L 1915.255 376.275 Q 1916.426 378.097 1918.553 378.097 L 1918.553 378.097 L 1958.468 378.097 Z  M 1980.085 300.321 L 1980.085 339.143 L 2018.936 339.143 L 2018.936 300.321 L 2030 300.321 L 2030 395.321 L 2018.936 395.321 L 2018.936 356.5 L 1980.085 356.5 L 1980.085 395.321 L 1969.021 395.321 L 1969.021 300.321 L 1980.085 300.321 Z " fill-rule="evenodd" fill="rgb(0,66,98)"/><path d=" M 2479.765 308.793 L 2479.765 394.033 L 2468.813 394.033 L 2468.813 339.01 L 2449.543 391.262 L 2449.543 391.262 Q 2448.832 393.26 2447.557 394.291 L 2447.557 394.291 L 2447.557 394.291 Q 2446.283 395.321 2444.82 395.321 L 2444.82 395.321 L 2444.82 395.321 Q 2443.398 395.321 2442.165 394.291 L 2442.165 394.291 L 2442.165 394.291 Q 2440.932 393.26 2440.222 391.262 L 2440.222 391.262 L 2420.868 339.01 L 2420.868 394.033 L 2410 394.033 L 2410 308.793 L 2410 308.793 Q 2410 305.893 2411.108 303.638 L 2411.108 303.638 L 2411.108 303.638 Q 2412.215 301.383 2414.013 300.61 L 2414.013 300.61 L 2414.013 300.61 Q 2414.891 300.288 2415.768 300.385 L 2415.768 300.385 L 2415.768 300.385 Q 2416.646 300.481 2417.461 300.965 L 2417.461 300.965 L 2417.461 300.965 Q 2418.276 301.448 2418.945 302.318 L 2418.945 302.318 L 2418.945 302.318 Q 2419.614 303.187 2420.074 304.412 L 2420.074 304.412 L 2444.82 370.709 L 2469.565 304.412 L 2469.565 304.412 Q 2470.527 301.963 2472.22 300.932 L 2472.22 300.932 L 2472.22 300.932 Q 2473.912 299.901 2475.752 300.61 L 2475.752 300.61 L 2475.752 300.61 Q 2477.507 301.383 2478.636 303.638 L 2478.636 303.638 L 2478.636 303.638 Q 2479.765 305.893 2479.765 308.793 L 2479.765 308.793 Z  M 2541.671 339.397 L 2541.671 356.277 L 2507.353 356.277 L 2507.353 339.397 L 2541.671 339.397 Z  M 2546.561 377.281 L 2546.561 394.033 L 2507.353 394.033 L 2507.353 394.033 Q 2505.095 394.033 2502.42 392.809 L 2502.42 392.809 L 2502.42 392.809 Q 2499.745 391.585 2497.467 388.782 L 2497.467 388.782 L 2497.467 388.782 Q 2495.189 385.979 2493.663 381.501 L 2493.663 381.501 L 2493.663 381.501 Q 2492.137 377.024 2492.137 370.516 L 2492.137 370.516 L 2492.137 310.081 L 2492.137 310.081 Q 2492.137 308.342 2492.555 306.795 L 2492.555 306.795 L 2492.555 306.795 Q 2492.973 305.249 2493.705 304.089 L 2493.705 304.089 L 2493.705 304.089 Q 2494.436 302.93 2495.44 302.285 L 2495.44 302.285 L 2495.44 302.285 Q 2496.443 301.641 2497.613 301.641 L 2497.613 301.641 L 2546.561 301.641 L 2546.561 318.393 L 2503.005 318.393 L 2503.005 370.516 L 2503.005 370.516 Q 2503.005 373.802 2504.134 375.542 L 2504.134 375.542 L 2504.134 375.542 Q 2505.263 377.281 2507.436 377.281 L 2507.436 377.281 L 2546.561 377.281 Z  M 2616.869 340.299 L 2616.869 355.375 L 2616.869 355.375 Q 2616.869 363.815 2614.967 370.903 L 2614.967 370.903 L 2614.967 370.903 Q 2613.065 377.99 2609.721 383.112 L 2609.721 383.112 L 2609.721 383.112 Q 2606.377 388.234 2601.779 391.134 L 2601.779 391.134 L 2601.779 391.134 Q 2597.181 394.033 2591.789 394.033 L 2591.789 394.033 L 2562.445 394.033 L 2562.445 394.033 Q 2561.275 394.033 2560.272 393.389 L 2560.272 393.389 L 2560.272 393.389 Q 2559.268 392.744 2558.537 391.617 L 2558.537 391.617 L 2558.537 391.617 Q 2557.805 390.489 2557.387 388.943 L 2557.387 388.943 L 2557.387 388.943 Q 2556.969 387.397 2556.969 385.593 L 2556.969 385.593 L 2556.969 310.081 L 2556.969 310.081 Q 2556.969 308.342 2557.387 306.795 L 2557.387 306.795 L 2557.387 306.795 Q 2557.805 305.249 2558.537 304.089 L 2558.537 304.089 L 2558.537 304.089 Q 2559.268 302.93 2560.272 302.285 L 2560.272 302.285 L 2560.272 302.285 Q 2561.275 301.641 2562.445 301.641 L 2562.445 301.641 L 2591.789 301.641 L 2591.789 301.641 Q 2597.181 301.641 2601.779 304.54 L 2601.779 304.54 L 2601.779 304.54 Q 2606.377 307.44 2609.721 312.562 L 2609.721 312.562 L 2609.721 312.562 Q 2613.065 317.684 2614.967 324.803 L 2614.967 324.803 L 2614.967 324.803 Q 2616.869 331.923 2616.869 340.299 L 2616.869 340.299 Z  M 2606.001 355.375 L 2606.001 340.299 L 2606.001 340.299 Q 2606.001 335.402 2604.977 331.343 L 2604.977 331.343 L 2604.977 331.343 Q 2603.953 327.284 2602.072 324.417 L 2602.072 324.417 L 2602.072 324.417 Q 2600.191 321.55 2597.578 319.971 L 2597.578 319.971 L 2597.578 319.971 Q 2594.966 318.393 2591.789 318.393 L 2591.789 318.393 L 2567.838 318.393 L 2567.838 377.281 L 2591.789 377.281 L 2591.789 377.281 Q 2594.966 377.281 2597.578 375.703 L 2597.578 375.703 L 2597.578 375.703 Q 2600.191 374.124 2602.072 371.257 L 2602.072 371.257 L 2602.072 371.257 Q 2603.953 368.39 2604.977 364.363 L 2604.977 364.363 L 2604.977 364.363 Q 2606.001 360.336 2606.001 355.375 L 2606.001 355.375 Z  M 2638.48 301.641 L 2638.48 394.033 L 2627.612 394.033 L 2627.612 301.641 L 2638.48 301.641 Z  M 2710 310.081 L 2710 394.033 L 2699.132 394.033 L 2699.132 371.354 L 2660.927 371.354 L 2660.927 394.033 L 2650.059 394.033 L 2650.059 347.837 L 2650.059 347.837 Q 2650.059 337.722 2652.316 329.217 L 2652.316 329.217 L 2652.316 329.217 Q 2654.573 320.712 2658.586 314.591 L 2658.586 314.591 L 2658.586 314.591 Q 2662.599 308.471 2668.074 305.056 L 2668.074 305.056 L 2668.074 305.056 Q 2673.55 301.641 2680.029 301.641 L 2680.029 301.641 L 2704.524 301.641 L 2704.524 301.641 Q 2705.653 301.641 2706.656 302.285 L 2706.656 302.285 L 2706.656 302.285 Q 2707.659 302.93 2708.412 304.089 L 2708.412 304.089 L 2708.412 304.089 Q 2709.164 305.249 2709.582 306.795 L 2709.582 306.795 L 2709.582 306.795 Q 2710 308.342 2710 310.081 L 2710 310.081 Z  M 2660.927 347.837 L 2660.927 354.602 L 2699.132 354.602 L 2699.132 318.393 L 2680.029 318.393 L 2680.029 318.393 Q 2679.528 318.393 2677.918 318.618 L 2677.918 318.618 L 2677.918 318.618 Q 2676.309 318.844 2674.198 319.746 L 2674.198 319.746 L 2674.198 319.746 Q 2672.087 320.648 2669.746 322.516 L 2669.746 322.516 L 2669.746 322.516 Q 2667.406 324.385 2665.441 327.671 L 2665.441 327.671 L 2665.441 327.671 Q 2663.476 330.956 2662.201 335.885 L 2662.201 335.885 L 2662.201 335.885 Q 2660.927 340.814 2660.927 347.837 L 2660.927 347.837 Z " fill-rule="evenodd" fill="rgb(0,66,98)"/></g></svg>